PathFileType	4	(X/Y/Z)	/Users/itak/Documents/Research/Walk-IL/dataset/trc/00167_00008.trc
DataRate	CameraRate	NumFrames	NumMarkers	Units	OrigDataRate	OrigDataStartFrame	OrigNumFrames
100.000000	100.000000	4	54	mm	100.000000	235	629
Frame#	Time	RPSI			LPSI			L3			STRN			T10			C7			CLAV			RBAK			LBAK			LSHO			LUPA			LAEL			LAOL			LWTS			LWPS			LFRA			LIFD			LHPS			LHTS			RSHO			RUPA			RAEL			RAOL			RWTS			RWPS			RFRA			RIFD			RHTS			RHPS			RBHD			LFHD			RFHD			LBHD			LHIP			RHIP			RASI			LASI			LKNE			LTHI			LANK			LTIP			LTOE			LMT1			LMT5			LHEE			RKNE			RTHI			RANK			RTIP			RTOE			RMT1			RMT5			RHEE			*53			
		X1	Y1	Z1	X2	Y2	Z2	X3	Y3	Z3	X4	Y4	Z4	X5	Y5	Z5	X6	Y6	Z6	X7	Y7	Z7	X8	Y8	Z8	X9	Y9	Z9	X10	Y10	Z10	X11	Y11	Z11	X12	Y12	Z12	X13	Y13	Z13	X14	Y14	Z14	X15	Y15	Z15	X16	Y16	Z16	X17	Y17	Z17	X18	Y18	Z18	X19	Y19	Z19	X20	Y20	Z20	X21	Y21	Z21	X22	Y22	Z22	X23	Y23	Z23	X24	Y24	Z24	X25	Y25	Z25	X26	Y26	Z26	X27	Y27	Z27	X28	Y28	Z28	X29	Y29	Z29	X30	Y30	Z30	X31	Y31	Z31	X32	Y32	Z32	X33	Y33	Z33	X34	Y34	Z34	X35	Y35	Z35	X36	Y36	Z36	X37	Y37	Z37	X38	Y38	Z38	X39	Y39	Z39	X40	Y40	Z40	X41	Y41	Z41	X42	Y42	Z42	X43	Y43	Z43	X44	Y44	Z44	X45	Y45	Z45	X46	Y46	Z46	X47	Y47	Z47	X48	Y48	Z48	X49	Y49	Z49	X50	Y50	Z50	X51	Y51	Z51	X52	Y52	Z52	X53	Y53	Z53	X54	Y54	Z54	

236	2.35	-1719.416748046875	1031.345336914062	62.10870361328125	-1716.118408203125	1031.676147460938	-60.46403503417969	-1715.412353515625	1068.51123046875	7.306644439697266	-1433.869506835938	1254.770385742188	-2.83437967300415	-1732.9697265625	1235.807739257812	11.22159862518311	-1637.354614257812	1495.69873046875	-9.121274948120117	-1446.78662109375	1372.332397460938	-15.75294494628906	-1718.370361328125	1332.279418945312	108.4009323120117	-1652.90283203125	1468.768432617188	-109.3179168701172	-1584.512939453125	1443.953002929688	-192.5275421142578	-1639.242797851562	1314.043823242188	-257.7804565429688	-1660.633422851562	1099.4755859375	-267.8851623535156	-1691.75341796875	1090.077758789062	-185.1390075683594	-1590.180053710938	850.760986328125	-261.6423034667969	-1681.563598632812	846.9150390625	-281.4596862792969	-1670.546752929688	989.6104125976562	-282.8597412109375	-1606.104736328125	664.033203125	-245.3024139404297	-1673.767211914062	774.6315307617188	-282.4133911132812	-1600.244506835938	772.2596435546875	-282.7948913574219	-1566.035034179688	1473.156127929688	167.8284301757812	-1586.67236328125	1410.38623046875	241.6485290527344	-1613.312255859375	1123.385864257812	305.5276794433594	-1632.599365234375	1114.396484375	209.5039215087891	-1492.362426757812	885.8162841796875	279.7257385253906	-1563.71923828125	876.921142578125	335.2342224121094	-1590.718627929688	1050.368408203125	322.8752136230469	-1494.7529296875	695.2102661132812	264.4967651367188	-1473.388549804688	789.6332397460938	288.82958984375	-1541.9443359375	791.1416625976562	331.684326171875	-1570.996459960938	1650.81787109375	51.1883544921875	-1435.2744140625	1682.926147460938	-117.9553298950195	-1406.146240234375	1695.555908203125	7.754656314849854	-1606.541381835938	1644.745239257812	-82.02352142333984	-1611.823974609375	970.672119140625	-182.1324310302734	-1573.639404296875	974.872802734375	191.5993804931641	-1490.131103515625	1000.216003417969	141.2120208740234	-1487.150512695312	1005.826354980469	-116.1568756103516	-1378.844360351562	510.4763793945312	-150.2770233154297	-1446.3681640625	636.7801513671875	-185.3304595947266	-1269.688598632812	46.7612419128418	-153.7701416015625	-1327.737182617188	288.0381469726562	-167.8720855712891	-1076.704467773438	140.257568359375	-131.26611328125	-1118.841552734375	118.34326171875	-84.23692321777344	-1165.89990234375	77.41162872314453	-191.7837066650391	-1316.75	34.78657150268555	-82.85107421875	-1658.8720703125	484.6572265625	129.0415344238281	-1556.302001953125	737.5231323242188	180.6817474365234	-1869.916259765625	38.68198013305664	89.19313812255859	-1678.967041015625	365.6701049804688	100.975227355957	-1647.114135742188	37.94122314453125	50.10263824462891	-1703.578735351562	38.48274230957031	7.665559768676758	-1757.853271484375	31.18069839477539	123.9385986328125	-1921.762817382812	47.08292770385742	23.02217864990234	nan	nan	nan	
237	2.36	-1712.39306640625	1030.690551757812	60.67909240722656	-1708.428833007812	1030.925903320312	-61.81882476806641	-1708.01611328125	1067.586547851562	5.882864475250244	-1426.46533203125	1253.924560546875	-3.369418144226074	-1725.599243164062	1234.809204101562	10.11856079101562	-1630.10888671875	1494.843505859375	-10.61700916290283	-1439.370727539062	1371.430908203125	-16.68762588500977	-1711.202026367188	1331.646484375	107.229850769043	-1645.556518554688	1467.556396484375	-110.7626190185547	-1577.113891601562	1442.433715820312	-193.8148956298828	-1631.826416015625	1312.357543945312	-258.7047729492188	-1653.662353515625	1098.009155273438	-268.708740234375	-1684.713500976562	1088.664428710938	-185.9205474853516	-1583.979248046875	849.0638427734375	-262.4833374023438	-1675.388671875	845.565673828125	-282.181396484375	-1663.890869140625	988.1881103515625	-283.6346435546875	-1600.567626953125	662.4361572265625	-246.1326293945312	-1667.842407226562	773.2708129882812	-283.1571044921875	-1594.338745117188	770.6427001953125	-283.6285400390625	-1558.945678710938	1472.72412109375	166.5309295654297	-1579.64794921875	1410.057983398438	240.4926910400391	-1606.220703125	1122.9833984375	304.5448303222656	-1625.491088867188	1113.996215820312	208.5136260986328	-1485.064453125	885.5327758789062	278.5771789550781	-1556.357055664062	876.524169921875	334.1097717285156	-1583.601684570312	1049.955200195312	321.8453979492188	-1487.239379882812	694.9544677734375	263.2413635253906	-1465.921020507812	789.4117431640625	287.5859375	-1534.48095703125	790.7870483398438	330.5092468261719	-1564.453491210938	1649.8369140625	49.37414932250977	-1428.62744140625	1682.154418945312	-119.6779098510742	-1399.754638671875	1695.204223632812	6.029919624328613	-1599.7900390625	1643.318115234375	-83.91791534423828	-1603.47607421875	969.8966064453125	-182.949951171875	-1567.272216796875	974.093994140625	191.0005035400391	-1483.448364257812	999.2052001953125	141.0935363769531	-1479.076904296875	1004.818908691406	-116.2986907958984	-1372.15771484375	509.0339050292969	-149.9687805175781	-1438.923095703125	635.7128295898438	-185.2247619628906	-1265.512451171875	45.06817245483398	-152.9906921386719	-1322.1416015625	286.3326110839844	-167.1748657226562	-1071.87255859375	136.9365081787109	-129.6580963134766	-1114.347900390625	115.2813186645508	-82.80637359619141	-1161.365478515625	74.84542846679688	-190.5472869873047	-1312.901977539062	33.41971969604492	-82.18412780761719	-1655.136352539062	484.4385375976562	128.8399047851562	-1551.488159179688	736.770751953125	180.4823303222656	-1869.63232421875	39.70526504516602	89.14048767089844	-1676.049682617188	365.50927734375	100.9109268188477	-1647.00244140625	37.84967422485352	50.03062438964844	-1703.457153320312	38.54337692260742	7.757673740386963	-1757.725463867188	31.17289733886719	123.9123992919922	-1921.5341796875	49.17033004760742	22.96909332275391	nan	nan	nan	
238	2.37	-1705.183715820312	1030.197875976562	59.05194854736328	-1700.46875	1030.356079101562	-63.35341644287109	-1700.425659179688	1066.837646484375	4.286612510681152	-1418.860961914062	1253.230712890625	-3.964564323425293	-1718.019165039062	1233.927368164062	8.874491691589355	-1622.693481445312	1494.132568359375	-12.18923473358154	-1431.779418945312	1370.668823242188	-17.6789379119873	-1703.862548828125	1331.13720703125	105.9481353759766	-1638.040161132812	1466.487915039062	-112.2866058349609	-1569.51416015625	1441.066650390625	-195.1742401123047	-1624.258666992188	1310.833862304688	-259.6876525878906	-1646.495727539062	1096.676635742188	-269.5642395019531	-1677.464965820312	1087.385498046875	-186.7326049804688	-1577.46142578125	847.5399780273438	-263.3323059082031	-1668.901489257812	844.3439331054688	-282.9008178710938	-1656.996826171875	986.8881225585938	-284.4315795898438	-1594.575805664062	661.0108642578125	-246.9661712646484	-1661.548583984375	772.0323486328125	-283.8940734863281	-1588.074096679688	769.197265625	-284.4775085449219	-1551.702270507812	1472.407958984375	165.1738739013672	-1572.475463867188	1409.833618164062	239.2658843994141	-1598.977294921875	1122.691284179688	303.4978637695312	-1618.232788085938	1113.712646484375	207.4524688720703	-1477.616821289062	885.3662719726562	277.3275756835938	-1548.832275390625	876.2377319335938	332.9020690917969	-1576.328369140625	1049.650146484375	320.7481689453125	-1479.583618164062	694.8148193359375	261.8739624023438	-1458.3154296875	789.3045654296875	286.2333984375	-1526.840454101562	790.542724609375	329.2371826171875	-1557.737670898438	1649.0224609375	47.50526809692383	-1421.833862304688	1681.528076171875	-121.4822082519531	-1393.206420898438	1695.029663085938	4.224858283996582	-1592.878662109375	1642.02392578125	-85.86338043212891	-1594.818481445312	969.2881469726562	-183.8875274658203	-1560.839233398438	973.4695434570312	190.2693634033203	-1476.61279296875	998.3482055664062	140.9255218505859	-1470.759399414062	1003.925354003906	-116.4791641235352	-1365.468017578125	507.6348876953125	-149.6982727050781	-1431.316650390625	634.7965087890625	-185.0989532470703	-1262.132934570312	43.36220550537109	-152.3053436279297	-1316.853881835938	284.5838317871094	-166.5021820068359	-1067.542114257812	132.8723602294922	-128.1011657714844	-1110.424194335938	111.5968475341797	-81.42385101318359	-1157.568603515625	71.88130950927734	-189.3380889892578	-1309.892333984375	32.17979431152344	-81.60799407958984	-1651.30908203125	484.3921508789062	128.6567077636719	-1546.585571289062	736.1860961914062	180.2570953369141	-1869.31689453125	40.90386199951172	89.15486145019531	-1673.058715820312	365.517822265625	100.8971786499023	-1646.899169921875	37.77207565307617	49.96856689453125	-1703.325317382812	38.63647079467773	7.889331340789795	-1757.566284179688	31.16408729553223	123.9032974243164	-1921.24560546875	51.51783752441406	22.99435424804688	nan	nan	nan	
239	2.38	-1697.770629882812	1029.878295898438	57.24771118164062	-1692.240478515625	1029.99169921875	-65.04927825927734	-1692.639038085938	1066.294067382812	2.542091369628906	-1411.054565429688	1252.714965820312	-4.623306274414062	-1710.236694335938	1233.19140625	7.484583854675293	-1615.109130859375	1493.588989257812	-13.84255313873291	-1424.013916015625	1370.069702148438	-18.72708320617676	-1696.357543945312	1330.772338867188	104.5488967895508	-1630.3486328125	1465.589111328125	-113.8942565917969	-1561.702758789062	1439.881591796875	-196.6079254150391	-1616.5224609375	1309.501708984375	-260.7418212890625	-1639.124389648438	1095.507934570312	-270.45263671875	-1669.99609375	1086.275024414062	-187.5746154785156	-1570.6220703125	846.2174072265625	-264.1832885742188	-1662.0986328125	843.2755737304688	-283.6087646484375	-1649.858154296875	985.7402954101562	-285.2470703125	-1588.13330078125	659.7830200195312	-247.7876739501953	-1654.888793945312	770.9432983398438	-284.6121826171875	-1581.448120117188	767.9458618164062	-285.3304138183594	-1544.311157226562	1472.226806640625	163.755615234375	-1565.161254882812	1409.729858398438	237.9625701904297	-1591.585205078125	1122.528198242188	302.3796997070312	-1610.822509765625	1113.562377929688	206.3109893798828	-1470.02392578125	885.3350830078125	275.9832153320312	-1541.152587890625	876.0836181640625	331.6161193847656	-1568.9013671875	1049.473022460938	319.5801086425781	-1471.790771484375	694.8074340820312	260.4106140136719	-1450.581298828125	789.3272094726562	284.7877807617188	-1519.034790039062	790.4300537109375	327.878173828125	-1550.846313476562	1648.3935546875	45.58241271972656	-1414.8916015625	1681.071044921875	-123.3635711669922	-1386.4990234375	1695.048461914062	2.345759630203247	-1585.804931640625	1640.88671875	-87.85674285888672	-1585.86865234375	968.8767700195312	-184.9353790283203	-1554.317016601562	973.0078125	189.4089050292969	-1469.624145507812	997.6665649414062	140.6989440917969	-1462.21337890625	1003.172546386719	-116.6992416381836	-1358.788452148438	506.3128967285156	-149.4553833007812	-1423.583740234375	634.0297241210938	-184.9750671386719	-1259.4267578125	41.74320220947266	-151.7097930908203	-1311.805053710938	282.8615112304688	-165.8462982177734	-1063.609375	128.1620330810547	-126.594482421875	-1106.956787109375	107.3753280639648	-80.09097290039062	-1154.396728515625	68.6328125	-188.1595153808594	-1307.589477539062	31.15671348571777	-81.11858367919922	-1647.36474609375	484.5288391113281	128.4912872314453	-1541.544555664062	735.7813110351562	179.9926147460938	-1868.958251953125	42.29997634887695	89.24284362792969	-1669.971923828125	365.708740234375	100.9352340698242	-1646.797119140625	37.70654296875	49.92065811157227	-1703.174926757812	38.76145553588867	8.061758995056152	-1757.370849609375	31.15725326538086	123.9098358154297	-1920.882690429688	54.14977264404297	23.10169219970703	nan	nan	nan	
